<?xml version="1.0" encoding="UTF-8"?>
<svg width="652px" height="160px" viewBox="0 0 652 160" version="1.1" xmlns="http://www.w3.org/2000/svg" xmlns:xlink="http://www.w3.org/1999/xlink">
    <!-- Generator: Sketch 40.3 (33839) - http://www.bohemiancoding.com/sketch -->
    <title>symbols</title>
    <desc>Created with Sketch.</desc>
    <defs></defs>
    <g id="Page-1" stroke="none" stroke-width="1" fill="none" fill-rule="evenodd">
        <g id="symbols">
            <path d="M460.116,123.444 C436.754,146.806 397.913,147.525 373.263,122.871 C349.47,99.079 347.32,61.385 372.689,36.018 L360.075,23.405 C329.117,54.361 328.831,105.387 359.789,136.347 C391.896,168.451 441.484,167.303 472.73,136.058 L460.116,123.444" id="Fill-15" fill="#CBCCCB"></path>
            <path d="M336.99,139.12 L341.043,139.12 C358.678,139.12 378.408,133.814 377.123,112.163 C375.09,77.912 326.448,87.725 326.448,87.725 L336.99,139.12 L336.99,139.12 Z M326.448,71.017 L331.313,71.017 C349.353,71.017 364.149,67.365 364.149,45.474 C364.149,23.989 349.557,20.342 331.719,20.342 L315.906,20.342 L326.448,71.017 L326.448,71.017 Z M292.335,3.316 L326.044,3.316 C354.826,3.316 381.988,10.814 381.988,45.275 C381.988,56.42 375.907,69.393 365.569,74.259 L365.569,74.664 C383.608,77.905 396.177,95.541 396.177,113.378 C396.177,143.986 370.029,156.146 343.07,156.146 L322.457,156.146 L292.335,3.316 L292.335,3.316 Z" id="Fill-16" fill="#FFFFFF"></path>
            <polyline id="Fill-17" fill="#FFFFFF" points="522.331 138.715 576.279 138.715 589.833 156.146 503.278 156.146 503.278 3.316 522.331 3.316 522.331 138.715"></polyline>
            <path d="M92.285,39.597 C92.285,60.88 76.475,70.814 59.043,78.312 L48.503,82.772 C35.328,88.245 19.14,95.337 19.14,111.757 C19.14,127.769 30.896,141.553 47.315,141.553 C63.733,141.553 77.111,129.392 76.909,112.567 L96.164,116.622 C92.921,141.147 73.666,159.39 48.937,159.39 C21.573,159.39 0.088,139.527 0.088,111.757 C0.088,86.218 19.315,74.259 41.003,65.744 L51.949,61.489 C61.476,57.841 73.231,51.557 73.231,39.597 L92.285,39.597" id="Fill-18" fill="#CBCCCB"></path>
            <path d="M73.937,39.586 C68.324,29.564 61.087,17.909 48.558,17.909 C36.397,17.909 23.019,26.219 23.019,39.597 C23.019,51.557 34.775,57.841 44.301,61.489 L55.247,65.744 C76.936,74.259 96.163,86.218 96.163,111.757 C96.163,139.527 74.678,159.39 47.314,159.39 C22.585,159.39 0.43,140.015 0.086,112.528 L19.342,112.567 C19.139,129.392 32.518,141.553 48.936,141.553 C65.354,141.553 77.11,127.769 77.11,111.757 C77.11,95.337 60.923,88.245 47.747,82.772 L37.207,78.312 C19.776,70.814 3.966,60.88 3.966,39.597 C3.966,14.87 25.856,0.072 48.964,0.072 C66.359,0.072 79.977,7.972 93.406,32.126 L73.937,39.586" id="Fill-19" fill="#FFFFFF"></path>
            <path d="M3.254,96.325 C8.521,80.959 24.246,72.322 41.003,65.744 L51.949,61.489 L72.329,71.652 C68.193,74.155 63.676,76.321 59.043,78.312 L48.503,82.772 C37.933,87.163 24.35,92.599 20.583,103.054 L3.254,96.325" id="Fill-20" fill="#CBCCCB"></path>
            <path d="M558.484,129.701 C556.355,124.247 555.195,118.217 555.195,111.757 C555.195,86.218 574.423,74.259 596.109,65.744 L607.057,61.489 C616.582,57.841 628.34,51.557 628.34,39.597 C628.34,26.219 614.96,17.909 602.799,17.909 C591.245,17.909 583.948,22.774 578.272,32.302 L563.07,23.18 C571.382,8.384 585.368,0.072 602.394,0.072 C625.502,0.072 647.392,14.87 647.392,39.597 C647.392,60.88 631.582,70.814 614.149,78.312 L603.609,82.772 C590.435,88.245 574.246,95.337 574.246,111.757 C574.246,117.064 575.538,122.127 577.862,126.522" id="Fill-21" fill="#CBCCCB"></path>
            <path d="M626.89,32.302 C622.652,24.389 615.22,17.909 603.665,17.909 C591.504,17.909 578.126,26.219 578.126,39.597 C578.126,51.557 589.881,57.841 599.407,61.489 L610.354,65.744 C632.042,74.259 651.27,86.218 651.27,111.757 C651.27,139.527 629.785,159.39 602.419,159.39 C577.692,159.39 555.537,140.015 555.193,112.528 L574.449,112.567 C574.245,129.392 587.624,141.553 604.042,141.553 C620.461,141.553 632.217,127.769 632.217,111.757 C632.217,95.337 616.03,88.245 602.854,82.772 L592.314,78.312 C574.883,70.814 559.073,60.88 559.073,39.597 C559.073,14.87 580.962,0.072 604.071,0.072 C621.097,0.072 642.326,10.27 646.734,32.375 L626.89,32.302" id="Fill-22" fill="#FFFFFF"></path>
            <path d="M558.361,96.325 C563.628,80.959 579.352,72.322 596.109,65.744 L607.057,61.489 L627.436,71.652 C623.301,74.155 618.782,76.321 614.149,78.312 L603.609,82.772 C593.04,87.163 579.457,92.599 575.69,103.054 L558.361,96.325" id="Fill-23" fill="#CBCCCB"></path>
            <polyline id="Fill-24" fill="#FFFFFF" points="152.594 3.316 133.168 97.199 93.406 32.126 73.594 38.971 126.038 121.359 118.758 156.146 139.681 156.146 172.977 3.316 152.594 3.316"></polyline>
            <path d="M357.855,134.34 C328.939,103.227 331.756,53.822 357.043,26.611 L363.212,44.439 C350.974,71.36 349.486,97.312 371.15,120.677 L357.855,134.34" id="Fill-25" fill="#CBCCCB"></path>
            <path d="M473.016,23.118 C442.058,-7.843 391.033,-7.556 360.075,23.405 L372.689,36.018 C398.058,10.649 435.753,12.796 459.543,36.591 C484.196,61.24 483.479,100.081 460.116,123.444 L472.73,136.058 C503.975,104.813 505.123,55.224 473.016,23.118" id="Fill-26" fill="#FFFFFF"></path>
            <polyline id="Fill-27" fill="#FFFFFF" points="284.525 2.853 260.433 55.34 260.434 55.34 232.026 117.229 179.527 2.853 148.314 156.146 167.976 156.146 185.812 55.204 186.218 55.207 232.026 159.39 277.834 55.207 278.241 55.204 296.078 156.146 315.739 156.146 284.525 2.853"></polyline>
        </g>
    </g>
</svg>