<?xml version="1.0" encoding="UTF-8"?>
<svg width="150px" height="150px" viewBox="0 0 150 150" version="1.1" xmlns="http://www.w3.org/2000/svg" xmlns:xlink="http://www.w3.org/1999/xlink">
    <!-- Generator: Sketch 40.3 (33839) - http://www.bohemiancoding.com/sketch -->
    <title>safari-pinned-tab</title>
    <desc>Created with Sketch.</desc>
    <defs></defs>
    <g id="Page-1" stroke="none" stroke-width="1" fill="none" fill-rule="evenodd">
        <g id="safari-pinned-tab">
            <rect id="background" fill="#000000" x="0" y="0" width="149.775503" height="149.775503"></rect>
            <path d="M145.014202,3.30522295 L5.12236748,3.30522295 C3.25511559,3.30522295 1.83795048,4.94921291 2.1116519,6.74920192 L20.358413,126.748469 C20.5287161,127.846463 21.29508,128.764457 22.3533922,129.124455 L74.0525486,147.124345 C74.6972675,147.358343 75.4210557,147.358343 76.0779391,147.124345 L127.777095,129.124455 C128.84149,128.764457 129.607854,127.840463 129.772075,126.748469 L148.018836,6.74920192 C148.298619,4.91321313 146.844961,3.30522295 145.014202,3.30522295 L145.014202,3.30522295 Z M110.083819,32.8790424 L58.6766112,63.3048566 L102.438427,63.3048566 C104.293514,63.3048566 105.710679,64.9188468 105.449142,66.7248357 L99.3668884,108.724579 C99.1965853,109.894572 98.3450698,110.866566 97.1894416,111.184564 L75.9015537,117.184528 C75.3723976,117.340527 74.7520077,117.334527 74.2350162,117.184528 L52.9471283,111.184564 C51.8036646,110.866566 50.9582313,109.912572 50.7818459,108.760579 L47.9718447,90.760689 C47.7163901,89.122699 48.8598538,87.5927083 50.5142268,87.3407099 C52.1990111,87.0767115 53.7256567,88.2107046 53.9811114,89.8486946 L56.4930822,105.952596 L75.0682849,111.178564 L93.625241,105.952596 L98.9289662,69.30482 L47.6981433,69.30482 C44.6266052,69.30482 43.495306,65.2908445 46.1289219,63.730854 L97.5361301,33.3050398 L41.6158896,33.3050398 C39.9371876,33.3050398 38.5747628,31.961048 38.5747628,30.3050581 C38.5747628,28.6490682 39.9371876,27.3050764 41.6158896,27.3050764 L108.52068,27.3050764 C111.592218,27.3050764 112.723518,31.3130519 110.083819,32.8790424 L110.083819,32.8790424 Z" fill="#FFFFFF"></path>
        </g>
    </g>
</svg>